<?xml version="1.0" encoding="utf-8"?>
<!-- Generator: Adobe Illustrator 24.3.0, SVG Export Plug-In . SVG Version: 6.00 Build 0)  -->
<svg version="1.1"
	 id="Capa_1" xmlns:cc="http://creativecommons.org/ns#" xmlns:dc="http://purl.org/dc/elements/1.1/" xmlns:inkscape="http://www.inkscape.org/namespaces/inkscape" xmlns:rdf="http://www.w3.org/1999/02/22-rdf-syntax-ns#" xmlns:sodipodi="http://sodipodi.sourceforge.net/DTD/sodipodi-0.dtd" xmlns:svg="http://www.w3.org/2000/svg"
	 xmlns="http://www.w3.org/2000/svg" xmlns:xlink="http://www.w3.org/1999/xlink" x="0px" y="0px" viewBox="0 0 100 125"
	 style="enable-background:new 0 0 100 125;" xml:space="preserve">
<style type="text/css">
	.st0{fill:#FFFFFF;}
</style>
<g transform="translate(0,-952.36218)">
	<path class="st0" d="M50,1047.4c0.7,0,1.5-0.3,2.1-0.8l19-18c1.2-1.1,1.2-3.1,0.1-4.3c-1.1-1.2-3.1-1.3-4.2-0.1l-14,13.2v-31
		c0-1.7-1.3-3-3-3s-3,1.3-3,3v31l-13.9-13.2c-1.1-1.2-3.1-1.1-4.2,0.1c-1.1,1.2-1.1,3.2,0.1,4.3l19,18
		C48.5,1047.1,49.2,1047.4,50,1047.4L50,1047.4z"/>
</g>
</svg>
