<svg id="Layer_1" data-name="Layer 1" xmlns="http://www.w3.org/2000/svg" viewBox="0 0 14.47 15.97"><path d="M10.63,8.63A4,4,0,0,0,6.9,12.75a3.92,3.92,0,0,0,3.73,4.12,4,4,0,0,0,3.74-4.12A4,4,0,0,0,10.63,8.63Zm0,6.76a2.54,2.54,0,0,1-2.39-2.64,2.54,2.54,0,0,1,2.39-2.64A2.53,2.53,0,0,1,13,12.75,2.53,2.53,0,0,1,10.63,15.39Z" transform="translate(-3.4 -4.8)"/><ellipse cx="11.11" cy="3.73" rx="0.85" ry="0.93"/><path d="M16.7,6.12A4,4,0,0,0,13.64,4.8h-6C5.09,4.8,3.4,6.67,3.4,9.47v6.6a4.92,4.92,0,0,0,1.22,3.44,4,4,0,0,0,3,1.26h5.95a4.07,4.07,0,0,0,3.06-1.26,4.84,4.84,0,0,0,1.2-3.41V9.47A4.89,4.89,0,0,0,16.7,6.12Zm-.12,10a3.34,3.34,0,0,1-.84,2.35,2.86,2.86,0,0,1-2.13.84H7.66a2.83,2.83,0,0,1-2.13-.84,3.4,3.4,0,0,1-.79-2.38V9.47a3.38,3.38,0,0,1,.79-2.35,2.79,2.79,0,0,1,2.13-.84h6a2.77,2.77,0,0,1,2.13.87,3.55,3.55,0,0,1,.78,2.32V16.1Z" transform="translate(-3.4 -4.8)"/></svg>