<svg id="Capa_1" data-name="Capa 1" xmlns="http://www.w3.org/2000/svg" viewBox="0 0 517.5 388.93"><defs><style>.cls-1{fill:#413f3d;}</style></defs><path class="cls-1" d="M75.75,466.68h400a58.82,58.82,0,0,0,58.75-58.75V136.5a58.82,58.82,0,0,0-58.75-58.75h-400A58.82,58.82,0,0,0,17,136.5V407.93A58.82,58.82,0,0,0,75.75,466.68Zm0-17.5a41,41,0,0,1-25-8.45L170.4,318.37a8.75,8.75,0,1,0-12.52-12.23L39.38,427.36a41.06,41.06,0,0,1-4.88-19.43V155.79L237.86,328a58.56,58.56,0,0,0,76,0L517,155.62V407.93a41,41,0,0,1-4.91,19.49L392.88,306.12a8.75,8.75,0,0,0-12.49,12.26L500.68,440.77a41,41,0,0,1-24.93,8.41Zm0-353.93h400a41.31,41.31,0,0,1,41.08,37.57L302.5,314.6a41.12,41.12,0,0,1-53.34,0L34.66,133A41.29,41.29,0,0,1,75.75,95.25Z" transform="translate(-17 -77.75)"/></svg>